# xmcd
#
# Track frame offsets: 
#        150
#        20710
#        35837
#        51145
#        71452
#        90990
#        103822
#        129472
#
# Disc length: 2182 seconds
#
# Revision: 0
# Processed by: cddbd v1.5.2PL0 Copyright (c) Steve Scherf et al.
# Submitted via: ExactAudioCopyFreeDBPlugin 1.0
#
DISCID=69088408
DTITLE=Bedlam Locomotive - Gramp Gramp
DYEAR=1996
DGENRE=Blues
TTITLE0=Townshifter
TTITLE1=Black Car
TTITLE2=Every Now and Then
TTITLE3=Sunrise in Menotta
TTITLE4=Gates
TTITLE5=Foreign Stand
TTITLE6=Don't Fence the Garden (the firefly song)
TTITLE7=Valerie
EXTD=
EXTT0=
EXTT1=
EXTT2=
EXTT3=
EXTT4=
EXTT5=
EXTT6=
EXTT7=
PLAYORDER=
